<?xml version="1.0" encoding="UTF-8"?>
<svg id="Capa_2" data-name="Capa 2" xmlns="http://www.w3.org/2000/svg" viewBox="0 0 706.41 108.4">
  <g id="Capa_1-2" data-name="Capa 1">
    <g>
      <polygon points="226.5 2.77 285 61.77 285 2.77 317 2.77 317 105.77 286.5 105.77 227.01 44.77 227 105.77 195 105.77 194 2.77 226.5 2.77"/>
      <polygon points="87 2.77 143.49 61.78 144 2.77 176 2.77 176 105.77 145.5 105.77 85 44.77 85 105.77 53 105.77 53 2.77 87 2.77"/>
      <path d="M608.99,52.75l-.62-2.07c-16.67-8.17-15.54-32.96-.71-42.74,15.29-10.08,61.76-9.86,78.32-2.65,19.89,8.65,21.93,35.39,3.04,45.98,21.47,7.28,23.25,38.22,4.29,49.31s-79.83,11.75-94.74-4.87c-11.56-12.88-7.47-37.87,10.43-42.96ZM637.74,23.01c-9.65,1.63-12.34,13.27-4.48,16.99,5.9,2.79,33.31,3.57,35.52-3.94.35-5.43,1.83-9.18-3.79-11.79-4.64-2.16-21.87-2.17-27.26-1.26ZM642.8,63.07c-7.84.74-17.71,2.05-16.41,12.72,1.41,11.55,20.18,10.59,29.09,9.97,10.06-.7,19.28-2.49,16.3-15.28-2.17-9.31-21.6-8.11-28.98-7.41Z"/>
      <path d="M394.83.02c30.47-.4,62.88,6.33,66.15,42.28,5.33,58.73-27.89,69.09-79.47,65.47-41.51-2.92-52.54-25.25-49.5-64.47C334.81,7.37,363.77.42,394.83.02ZM422.64,32.14c-8.48-8.52-40.53-8.75-50.14-2.37-12.32,8.19-11.59,41.16.17,48.84,8.5,5.55,39.67,6.16,47.84.17,10.04-7.35,10.46-38.27,2.13-46.65Z"/>
      <polygon points="494 2.77 526.49 72.78 559 2.77 593 2.77 543.51 104.79 509.46 105.85 458 2.77 494 2.77"/>
      <rect y="2.77" width="34" height="103"/>
    </g>
  </g>
</svg>