<?xml version="1.0" encoding="UTF-8"?>
<svg id="Capa_2" data-name="Capa 2" xmlns="http://www.w3.org/2000/svg" viewBox="0 0 706.41 160.9">
  <defs>
    <style>
      .cls-1 {
        fill: #f73526;
      }

      .cls-2 {
        fill: #0f294c;
      }
    </style>
  </defs>
  <g id="Capa_1-2" data-name="Capa 1">
    <g>
      <g>
        <polygon class="cls-2" points="226.5 2.78 285 61.78 285 2.78 317 2.78 317 105.78 286.5 105.78 227.01 44.78 227 105.78 195 105.78 194 2.78 226.5 2.78"/>
        <polygon class="cls-2" points="87 2.78 143.49 61.79 144 2.78 176 2.78 176 105.78 145.5 105.78 85 44.78 85 105.78 53 105.78 53 2.78 87 2.78"/>
        <path class="cls-1" d="M689.02,51.28c18.89-10.6,16.86-37.33-3.03-45.99-16.56-7.2-63.03-7.43-78.32,2.66-14.83,9.78-15.97,34.57.7,42.74l.62,2.07c-17.9,5.09-21.98,30.07-10.43,42.96,2.71,3.01,6.95,5.45,12.2,7.34l19.74-20.59,2.91-3.03-.49-1.02-6.5-6.34-5.57-5.43,48.15-11.54-1.88,10.07-3.65,19.52-3.75,20.06-13.25-13.2-1.27-.35-15.26,16.11c23.38,2.86,51.98-.08,63.37-6.73,18.96-11.09,17.18-42.03-4.29-49.31ZM668.79,36.07c-2.21,7.51-29.62,6.74-35.52,3.94-7.87-3.71-5.18-15.36,4.47-16.99,5.4-.91,22.62-.9,27.26,1.26,5.62,2.61,4.13,6.36,3.79,11.79Z"/>
        <path class="cls-2" d="M460.98,42.3C457.72,6.35,425.3-.38,394.83.02c-31.06.41-60.02,7.36-62.81,43.28-3.05,39.21,7.98,61.54,49.5,64.46,51.57,3.63,84.79-6.73,79.46-65.46ZM420.51,78.79c-8.17,5.98-39.34,5.38-47.85-.17-11.76-7.68-12.48-40.66-.16-48.84,9.6-6.39,41.66-6.16,50.14,2.36,8.33,8.38,7.91,39.3-2.13,46.65Z"/>
        <polygon class="cls-2" points="494 2.78 526.49 72.78 559 2.78 593 2.78 543.51 104.79 509.46 105.85 458 2.78 494 2.78"/>
        <rect class="cls-2" y="2.78" width="34" height="103"/>
      </g>
      <g>
        <g>
          <path class="cls-2" d="M189.51,147.24v-.08c0-7.55,5.69-13.73,13.85-13.73,4.97,0,8.04,1.67,10.47,4.1l-3.72,4.29c-2.09-1.86-4.1-3-6.79-3-4.48,0-7.7,3.72-7.7,8.27v.08c0,4.55,3.15,8.34,7.7,8.34,3.03,0,4.89-1.18,6.98-3.11l3.72,3.76c-2.73,2.92-5.73,4.74-10.89,4.74-7.81,0-13.62-6.03-13.62-13.66Z"/>
          <path class="cls-2" d="M231.19,133.89h12.14c3.38,0,5.96.91,7.74,2.69,1.52,1.52,2.28,3.53,2.28,6.07v.08c0,4.29-2.31,6.98-5.69,8.23l6.49,9.48h-6.83l-5.69-8.5h-4.59v8.5h-5.84v-26.55ZM242.95,146.79c2.88,0,4.48-1.48,4.48-3.75v-.08c0-2.54-1.71-3.79-4.59-3.79h-5.8v7.62h5.92Z"/>
          <path class="cls-2" d="M271.13,133.89h20.03v5.2h-14.23v5.39h12.52v5.2h-12.52v5.58h14.41v5.2h-20.22v-26.55Z"/>
          <path class="cls-2" d="M318.16,133.7h5.39l11.38,26.74h-6.11l-2.43-5.96h-11.23l-2.43,5.96h-5.96l11.38-26.74ZM324.31,149.33l-3.53-8.61-3.53,8.61h7.06Z"/>
          <path class="cls-2" d="M354.31,139.28h-8.08v-5.39h22v5.39h-8.08v21.17h-5.84v-21.17Z"/>
          <path class="cls-2" d="M385.48,133.89h5.84v26.55h-5.84v-26.55Z"/>
          <path class="cls-2" d="M409.3,147.24v-.08c0-7.55,5.96-13.73,14.15-13.73s14.07,6.11,14.07,13.66v.08c0,7.55-5.96,13.73-14.15,13.73s-14.07-6.11-14.07-13.66ZM431.41,147.24v-.08c0-4.55-3.34-8.35-8.04-8.35s-7.97,3.72-7.97,8.27v.08c0,4.55,3.34,8.34,8.04,8.34s7.97-3.72,7.97-8.27Z"/>
          <path class="cls-2" d="M455.23,133.89h5.39l12.44,16.35v-16.35h5.77v26.55h-4.97l-12.86-16.88v16.88h-5.77v-26.55Z"/>
          <path class="cls-2" d="M495.89,156.57l3.45-4.13c2.43,1.97,4.89,3.22,7.93,3.22,2.43,0,3.83-.95,3.83-2.5v-.08c0-1.48-.91-2.28-5.35-3.38-5.39-1.33-8.8-2.88-8.8-8.12v-.08c0-4.82,3.83-8,9.29-8,3.91,0,7.13,1.21,9.86,3.38l-3.03,4.4c-2.39-1.63-4.63-2.62-6.9-2.62s-3.41.99-3.41,2.31v.08c0,1.78,1.14,2.28,5.73,3.49,5.39,1.44,8.42,3.34,8.42,7.97v.08c0,5.27-4.02,8.23-9.75,8.23-4.06,0-8.08-1.37-11.27-4.25Z"/>
        </g>
        <g>
          <path class="cls-2" d="M173.71,147.78L1.71,145.78l172-2c2.65.03,2.69,3.96,0,4h0Z"/>
          <path class="cls-2" d="M532.71,143.78s172,2,172,2c0,0-172,2-172,2-2.65-.03-2.69-3.96,0-4h0Z"/>
        </g>
      </g>
    </g>
  </g>
</svg>