<?xml version="1.0" encoding="UTF-8"?>
<svg id="Capa_2" data-name="Capa 2" xmlns="http://www.w3.org/2000/svg" viewBox="0 0 339.11 321.2">
  <g id="Capa_1-2" data-name="Capa 1">
    <path d="M287.53,151.77c56.02-31.44,50-110.71-8.99-136.39C229.44-5.97,91.62-6.66,46.28,23.27,2.3,52.27-1.08,125.79,48.36,150.02l1.84,6.14c-53.08,15.1-65.18,89.18-30.93,127.4,8.04,8.93,20.61,16.16,36.18,21.77l58.54-61.06,8.63-8.99-1.45-3.02-19.28-18.8-16.52-16.1,142.79-34.22-5.58,29.86-10.82,57.89-11.12,59.49-39.29-39.15-3.77-1.04-45.26,47.78c69.34,8.48,154.15-.24,187.93-19.96,56.23-32.89,50.95-124.65-12.72-146.24ZM227.54,106.66c-6.55,22.27-87.84,19.99-105.34,11.68-23.34-11-15.36-45.55,13.26-50.39,16.01-2.7,67.08-2.67,80.84,3.74,16.67,7.74,12.25,18.86,11.24,34.96Z"/>
  </g>
</svg>